<svg width="32" height="32" viewBox="0 0 32 32" fill="none" xmlns="http://www.w3.org/2000/svg">
<path d="M3.89981 18.8999L18.8998 3.89994C21.3998 1.29994 25.4998 1.29994 28.0998 3.79994C30.6998 6.29994 30.6998 10.4999 28.0998 12.9999L27.9998 13.0999L25.1998 15.9999L23.7998 14.5999L26.6998 11.6999C28.3998 9.99994 28.3998 7.09994 26.6998 5.39994C24.9998 3.69994 22.0998 3.59994 20.3998 5.29994C20.3998 5.29994 20.3998 5.29994 20.2998 5.39994L5.39981 20.2999C3.59981 21.9999 3.5998 24.8999 5.2998 26.5999C6.99981 28.3999 9.89981 28.3999 11.5998 26.6999C11.5998 26.6999 11.5998 26.6999 11.6998 26.5999L19.0998 19.1999C20.0998 18.1999 19.9998 16.5999 19.0998 15.6999C18.0998 14.7999 16.5998 14.7999 15.5998 15.6999L11.4998 19.7999L10.0998 18.3999L14.2998 14.1999C16.0998 12.4999 18.8998 12.5999 20.5998 14.3999C22.1998 16.0999 22.1998 18.7999 20.5998 20.5999L13.0998 28.0999C10.5998 30.6999 6.49981 30.6999 3.89981 28.1999C1.2998 25.6999 1.2998 21.4999 3.89981 18.8999C3.89981 18.9999 3.89981 18.8999 3.89981 18.8999Z" fill="#BBBBBB"/>
</svg>
